<?xml version="1.0" encoding="utf-8"?>
<!-- Generator: Adobe Illustrator 24.0.2, SVG Export Plug-In . SVG Version: 6.00 Build 0)  -->
<svg version="1.1" id="Capa_1" xmlns="http://www.w3.org/2000/svg" xmlns:xlink="http://www.w3.org/1999/xlink" x="0px" y="0px"
	 viewBox="0 0 1920 1080" style="enable-background:new 0 0 1920 1080;" xml:space="preserve">
<style type="text/css">
	.st0{fill:#112770;}
	.st1{fill:#B79A7C;}
	.st2{fill:#EAAD7B;}
	.st3{fill:#FFFFFF;}
	.st4{fill:#B7BDD3;}
	.st5{fill:#FF8BC9;}
	.st6{fill:#F8286B;}
	.st7{fill:#B6BDD3;}
	.st8{fill:#F9286B;}
	.st9{fill:#FCBDD0;}
	.st10{fill:#B6BCD3;}
	.st11{fill:#F7286B;}
	.st12{fill:#FCCB80;}
	.st13{fill:#B5BBD2;}
	.st14{fill:#F8C980;}
	.st15{fill:#F6B8CE;}
	.st16{fill:#E1BF7F;}
	.st17{fill:#364481;}
	.st18{fill:#7D90B1;}
	.st19{fill:#4B6295;}
	.st20{fill:#F8C171;}
	.st21{fill:#B39271;}
	.st22{fill:#3F528E;}
	.st23{fill:#F3FBFC;}
	.st24{fill:#3D518D;}
	.st25{fill:#122770;}
</style>
<g>
	<path class="st0" d="M1151.3,620.9c1.6-0.2,3-1.2,4.3-1.9c27.8-15.4,49-37.1,62.9-65.8c0.5-1,0.9-2,1.5-3c1.6-3,4.5-4.1,7.7-2.9
		c1,0.4,2,1,2.9,1.7c4.8,3.7,9.4,7.7,13.7,11.9c9.5,9.4,15.3,20.8,17.9,33.8c2.4,11.8,2.3,23.5-1.6,35c-2.8,8.5-7.4,15.9-13.4,22.5
		c-1.1,1.2-2.1,2.4-3.2,3.6c-0.1,0.1-0.1,0.3-0.1,0.5c0.3,1.3,1.4,2,2.1,3.1c3.3,4.9,4.6,10.1,3.1,15.9c-2.1,8.4-6.9,14.2-15.2,17.1
		c-3.5,1.2-7.1,1.8-10.7,2.3c-0.8,0.1-1.6-0.1-2.3,0.6c0.2,1.6,1.4,2.7,2.2,4c5.5,8.6,10.4,17.6,13.8,27.3c1.5,4.4,2.5,8.9,3.1,13.5
		c0.5,3.5,0.1,7.1-0.7,10.5c-1.3,5.1-4.4,8.4-9.7,9.4c-0.6,0.1-1.3,0.2-1.9,0.2c-0.7,0.1-1.1,0.6-1.1,1.3c0,0.6,0.1,1.3,0.2,1.9
		c0.8,7,1.5,14,2.3,21c1.5,13.5,1.8,27.1,1.7,40.7c-0.2,22.4-2.2,44.7-6.7,66.6c-3,14.5-5.8,29.1-10.4,43.3
		c-3.6,11.1-7.7,22-13.1,32.4c-2.9,5.7-6.4,11.1-10,16.3c-0.4,0.2-0.6,0.5-0.7,0.9c-0.1,0.3-0.3,0.6-0.4,0.9
		c0.1,3.3-2.1,5.3-4.1,7.2c-6.6,6.6-14.3,11.8-22.7,15.7c-7,3.3-14.3,2.9-21.3-0.4c-12.6-5.9-21.3-15.9-28.6-27.3
		c-3.5-4.5-6.2-9.6-9-14.5c-2.1,5.2-5.1,9.9-8.2,14.6c-6.2,9.4-13.6,17.9-23.6,23.3c-16.3,9-32.6,10.8-48.4-1.4
		c-9.1-7.1-17.3-15-23.9-24.5c-0.8-1.5-2.2-2.5-2.7-3.5c0.7,0.8,0.1,1.9-0.4,3.1c-7.9,15.1-17,29.3-30.9,39.6
		c-14.7,11-28.4,10.8-43-0.2c-13.2-9.9-20.9-23.7-27-38.7c-1.4-2.4-2.1-5.3-3.8-8.1c-2.6,3.2-4.7,6.2-6.6,9.4
		c-5.7,8.2-12.3,15.5-20.5,21.2c-19.9,13.9-40.1,10.4-54.3-9.3c-2.4-3.4-4.8-6.8-4.7-11.2c-4.2-9.6-6.9-19.6-8.4-29.9
		c-1.2-8.1-1.6-16.2-1.6-24.4c-0.1-16.2,1.3-32.3,3.8-48.2c0.7-4.3,1.3-8.5,2.2-12.8c0.5-2.6-0.1-4.5-1.8-6.5
		c-6-7.1-11.4-14.6-16.5-22.4c-4.9-7.5-9.4-15.2-12.8-23.5c-1-2.5-1.9-5.1-2.8-7.7c-1.7,0.5-3.3,0.9-4.8,1.4
		c-2.5,0.7-5.1,0.9-7.6,0.5c-6.3-0.9-9-3.9-10.1-8.7c-0.7-3.2-1-6.3-0.2-9.5c0.4-1.7,0.8-3.4,1.2-5.1c-0.6-1.1-1.7-0.8-2.6-1.1
		c-8.9-2.3-14-9.1-13.5-18.3c0.2-3.8,1-7.6,2.1-11.3c2-6.4,4.8-12.5,8.1-18.4c0.8-1.5,1.7-3.1,2.4-4.5c-0.7-1.1-1.7-1.2-2.5-1.5
		c-5.5-2.1-9.4-6-11.9-11.3c-3.8-8-4.7-16.2-1.5-24.7c2.3-6.2,5.7-11.8,9.8-16.9c1.2-1.5,2.4-3,3.7-4.5c-0.4-0.8-0.8-1.5-1.2-2.2
		c-5.4-9.5-7.1-19.7-5.9-30.5c0.7-5.7,1.9-11.3,4.1-16.7c1.1-2.9,1.5-5.9,1.9-8.9c1.9-15.3,2.5-30.6,1.8-46
		c-0.5-10.1-1.2-20.1-2.5-30.1c-0.6-4.3-1.2-8.6-2-12.8c-2-10-1.7-19.7,2.2-29.2c1.9-4.6,1.5-9.1-0.5-13.5c-1.6-3.4-3.7-6.4-6.6-8.8
		c-6.3-5.3-7-12.2-6-19.6c0.6-4,2.3-7.7,4.8-10.9c2.5-3.2,3.5-6.8,3.6-10.7c0.2-5.1-0.3-10.2-0.6-15.3c-1.1-18.8-1.9-37.7-1-56.6
		c0.3-6.7,0.5-13.4,1.1-20.1c0.6-6.2,1.3-12.4,2.2-18.6c0.6-4.6,1.1-9.2,1.8-13.8c3.2-23.4,10-45.5,21.9-66c0.4-0.7,0.8-1.4,1.2-2.1
		c0.3-0.6,0.2-1.3-0.3-1.7c-0.8-0.6-1.6-1.1-2.4-1.6c-16.7-11.8-26.9-27.9-30.9-47.9c-2.6-12.7-1.9-25.4,0.5-38.1c0.6-3,1-6,1.8-8.9
		c6.6-25,22-41.5,47.2-48c12.6-3.3,23,1.8,29.1,10.7c4,5.9,6.5,12.4,6.7,19.7c0.3,11.7,0.9,23.3,1.3,35c0.1,1.4,0.2,2.9,0.2,4.3
		c0,1.6,0.7,2.6,2.3,3.2c4.4,1.5,8.4,3.8,12,7.3c0.9-1.3,1.1-2.5,1.6-3.6c1.3-3.6,3.2-7,5.7-9.9c3.8-4.5,8.7-6.8,14.6-7.5
		c2-0.2,3.8,0.3,5.6,1c4.8,1.9,8.4,5.2,10.7,9.8c1.7,3.5,2.6,7.2,2.7,11.1c0.2,6.3-1.1,11.8-4,17.8c5.4,1.5,11,1.6,16.4,3.7
		c0.2-0.8,0.5-1.4,0.5-2c0.2-2.1,0.3-4.1,0.4-6.2c0.5-14.4,0.9-28.8,1.3-43.2c0.3-8,0.4-16,0.9-24c0.7-13.2,8.9-26.5,28-28
		c3.6-0.3,7,0.6,10.4,1.5c8.7,2.6,16.4,7.1,23.2,13.1c5.1,4.4,9.5,9.5,13.3,15.1c1.1,1.6,2,3.3,2.7,5.1c5.7,13.7,9.1,28,9.3,42.9
		c0.4,25.2-8.6,46.2-28.2,62.3c-0.7,0.6-1.5,1.2-2.2,1.9c-0.1,0.1-0.2,0.3-0.3,0.4c-0.1,1.1,0.8,1.6,1.4,2.2
		c3.3,3.8,5.7,8.1,7.8,12.6c4.3,9.2,7.1,18.8,9.4,28.6c0.3,1.2,0.6,2.5,0.8,3.7c1.4,7.7,5.6,13.7,12.3,17.5c4.8,2.7,7,6.7,8.3,11.7
		c1.2,4.8,0,9.2-2.5,13.3c-1.3,2.2-3,4.2-5,5.8c-1.9,1.5-2.5,2.9-1.5,5.3c1.5,3.6,2,7.4,2.5,11.2c0.8,6.9-0.1,13.4-3.8,19.4
		c-0.9,1.4-1.3,2.9-1.3,4.5c-0.4,25.3-1.4,50.5-0.7,75.8c0.3,10.6,0.8,21.1,1.6,31.6c1.5,19.6,5.3,38.6,13.4,56.6
		c4,9,9.2,17.2,15.8,24.5c6.3,7,13.6,11.8,23,13.7c7.6,1.5,15.1,2.7,22.8,2.4c1,0,1.9-0.1,2.9-0.2c6.5-0.2,11.5,2,14.6,8
		c0.9,1.8,1.1,1.8,3,1.5c5.2-0.8,10.4-1.4,15.7-1.4c2.7,0,5.4,0.4,8.1,1c2.8,0.7,5.5,1.9,6.3,5.1c0.3,1.1,1.2,1.4,2,1.8
		c1.3,0.7,1.8,1.8,1.7,3.2c-0.2,1.7-0.5,3.5-0.7,5.1c0.9,1.1,2.3,1.2,3.5,1.6c15.1,4.6,29.3,10.9,42.2,20.1c0.3,0.2,0.6,0.3,0.9,0.4
		C1147.1,621.6,1149.2,621.2,1151.3,620.9z"/>
	<path class="st1" d="M805.8,980.5c0.7,0.5,0.9,1.3,1.2,2c3.1,6.4,7.3,12,12.7,16.7c10.5,9,22.1,10.7,34.9,5.5
		c5.8-2.4,10.9-6.1,15.5-10.3c4.5-4.1,8.5-8.7,12.2-13.5c0.6-0.8,1.2-1.4,1.8-2.2c4.1-2.9,8.4-2.4,12.8-1
		c3.1,6.6,6.2,13.3,10.2,19.4c4.6,7,9.8,13.4,16.5,18.5c3.2,2.4,6.6,4.4,10.4,5.9c7.9,3.1,15.6,2.8,23.2-0.9
		c4.9-2.4,9.2-5.7,13.2-9.4c7-6.6,12.7-14.3,17.9-22.4c2.5-4,4.9-8.2,7.3-12.3c1.7-0.6,3.4-0.2,5.1,0.3c5.2,6.4,10.7,12.7,16.8,18.3
		c4.1,3.8,8.5,7.2,13.4,9.9c2.6,1.5,5.4,2.7,8.3,3.6c2.9,0.9,5.9,1.2,9,0.9c15.9-1.5,27.1-7.1,37.7-19.2c3-3.5,5.8-7.1,8.7-10.7
		c6.4-1.9,12.9-1.3,19.3-0.1c2.3,3,4.5,6.1,6.9,9.1c4.2,5.2,8.9,10,14.5,13.8c5.3,3.7,11.1,6.2,17.8,6.2c5,0,9.4-1.4,13.5-4.2
		c2-1.3,4-2.6,6-3.9c5.2-3.2,9.7-7.2,13.8-11.8c1-1.2,1.8-2.6,3.2-3.4c5.6,0.6,11.1,1.2,16.7,1.7c3.7,0.3,7.3,0.7,11,1
		c6.9,0.5,13.6,1.6,20.4,2.3c6.7,0.7,13.3,1.8,19.9,2.9c8.8,1.5,17.6,3.2,26.2,5.6c3.7,1,7.3,2.2,10.6,4.2c5.6,3.4,5.5,6.6-0.1,9.7
		c-4.2,2.4-8.8,3.7-13.4,5c-8.3,2.2-16.8,3.8-25.3,5.1c-8.4,1.2-16.7,2.5-25.1,3.6c-4.1,0.5-8.3,0.8-12.4,1.2
		c-4.6,0.5-9.2,1-13.8,1.6c-0.5,0.1-0.9,0.1-1.4,0.2c-5.4,0.4-10.9,0.4-16.2,1.2c-6.2,1-12.5,0.3-18.6,1.6c-0.2,0-0.3,0.1-0.5,0
		c-6.7-0.2-13.4,1-20.1,1.1c-8.5,0.2-16.9,0.8-25.3,1.2c-6.5,0.4-13.1,0.2-19.6,0.8c-10.5,0.9-21.1,0.3-31.6,1
		c-16.3,1.2-32.6,0-48.9,1c-18.5,1.1-37.1,0.4-55.6,0.7c-7.5,0.1-15-0.1-22.5,0c-9.6,0.1-19.1-1.1-28.7-0.9
		c-9.6,0.2-19.2,0.4-28.8-0.2c-9.9-0.7-19.8-0.2-29.7-0.9c-7.7-0.6-15.3-0.3-23-1c-6.1-0.5-12.2-0.3-18.2-0.9
		c-6.2-0.6-12.5-0.4-18.6-1c-4.6-0.5-9.3-0.2-13.8-0.9c-5.7-0.9-11.5-0.2-17.2-1.5c-0.5-0.1-1-0.1-1.4-0.1c-5.8,0.3-11.4-1-17.2-1.2
		c-4.6-0.2-9.2-1.1-13.8-1.6c-4.1-0.4-8.3-0.7-12.4-1.2c-5.5-0.6-11.1-1.2-16.6-2.1c-9-1.4-17.9-3-26.9-4.6
		c-6-1.1-11.8-2.7-17.5-4.9c-2.2-0.8-4.4-1.9-6.4-3.2c-3.3-2.1-3.3-5.6,0-7.8c2.3-1.5,4.8-2.6,7.3-3.5c6.8-2.5,13.8-4.2,20.9-5.4
		c9.9-1.7,19.8-3.4,29.8-4.7c6.8-1,13.6-1.4,20.5-2.2c4.6-0.5,9.2-1.2,13.8-1.6c5.2-0.5,10.5-0.8,15.7-1.2c6.5-0.5,13-1.1,19.5-1.7
		c0.6-0.1,1.3-0.2,1.9-0.1c6.6,0.3,13-1.2,19.6-1.1C804,982.6,805.4,982.4,805.8,980.5z"/>
	<path class="st2" d="M1151.3,620.9c-0.7,0.4-1.3,0.7-1.9,1.2c-1.8,1.3-3.1,0.5-4.2-1.1C1147.1,619.7,1149.2,619.5,1151.3,620.9z"/>
	<path class="st1" d="M1189.8,984.6c0-0.5,0.3-0.8,0.7-0.9C1190.5,984.2,1190.3,984.5,1189.8,984.6z"/>
	<path class="st3" d="M1118.4,911.6c7.2-4.4,14.3-9.1,20.7-14.7c4-3.5,7.9-6.9,11.2-11.1c0.5-1.5-0.3-1.5-1.4-1.3
		c-6.8,5.4-13.9,10.3-21.7,14.2c-1.8,0.9-3.7,1.7-5.6,2.5c-2.8-0.5-1.5-2.5-1.3-4c1.8-15,0.2-29.6-6.2-43.4
		c-3.8-8.4-8.8-10.3-18-8.6c-6,1.1-11.8,2.8-17.5,4.9c-4,1.4-6.4,3.6-7.2,8c-0.8,4.8-3.1,9-6.6,12.5c-6,5.8-12,6.4-19,1.9
		c-1.2-0.8-2.5-1.5-3.5-2.5c-2.7-2.4-5-3.1-8.4-0.6c-4.2,3.1-8.8,1.9-13-0.7c-5.1-3.2-10.1-6.8-15.9-8.7
		c-13.2-4.3-25.3,2.1-28.6,15.7c-4,16.8-7.8,33.6-12.5,50.2c-4.4,15.9-11.5,30.5-21,43.9c-3.5,5-8.5,8.2-13.6,11.2
		c-6.1,3.6-12.3,1.8-17.2-4.1c-4.7-8.2-8.2-17-11.3-25.9c-4.8-13.7-8.7-27.7-11-42.1c-0.7-4.6-3.1-7.6-7.7-8.7
		c-10.2-2.4-19.6-6.9-28.5-12.2c-16.9-10.2-31.1-23.4-43.3-38.9c-13.3-16.8-23.5-35.4-31.7-55.1c-0.6-1.5-1.2-3-1.9-4.4
		c-0.7-1.2-1.5-2.5-2.5-3.5c-3.5-3.9-7.2-3.7-10.3,0.6c-0.6,0.8-1,1.7-1.5,2.5c-0.6,0.9-1.2,1.9-1.9,2.7c-1.1,1.2-2.4,1-3-0.5
		c-0.8-2-0.9-3.9,0-6c2-5.3,4.8-10.1,8.3-14.5c1.1-1.3,1.7-2.6,1.4-4.4c-0.7-4.2-5-6.4-8.7-4.2c-2.2,1.3-4.3,2.7-6.7,3.7
		c-2.1,0.8-4.2,1.5-6.5,1.3c-1.5-0.1-2.4-0.9-2.7-2.3c-0.2-0.9-0.3-1.9-0.2-2.9c0.4-3.5,0.8-7,2.1-10.3c2.8-7,5.7-13.9,9.2-20.5
		c1.5-2.8,3.1-5.5,5.2-8.1c2.6-3.2,1.2-7.4-2.8-8.7c-1.4-0.4-2.8-0.6-4.3-0.3c-1.8,0.3-3.5,0.2-5.2-0.2c-5-1-8-3.8-8.9-8.8
		c-0.7-4.1-0.6-8.3,1.1-12.3c2.3-5.3,5.2-10.3,8.9-14.7c1.3-1.6,3-2.9,4.5-4.3c3-2.8,3.4-5.6,1.2-9c-0.3-0.5-0.8-1-1.2-1.5
		c-3.9-5.3-5.8-11.3-6.3-17.8c-0.5-7.3,0.2-14.4,2.6-21.3c1.9-5.3,2.6-10.8,3.2-16.4c0.5-4.6,0.9-9.2,1.3-13.8c0.1-0.8,0-1.6,1-2.2
		c0.4,0.4,0.9,0.8,1.3,1.2c14,16,31.4,27,51.3,34.2c9,3.3,18.3,5.6,27.9,6.8c0.5,0.1,0.9,0.1,1.4,0.2c1.3,0.2,1.8,0.9,2.2,2.1
		c1,2.8,2.2,5.7,3.5,8.4c2,4,4.4,7.9,8.9,9.7c0.7,0.3,0.9,0.9,0.9,1.5c0,0.6,0,1.3-0.1,1.9c-1.1,12.6-2.3,25.2-3.3,37.7
		c-0.8,9.1-1.5,18.2-2.3,27.2c-0.8,9.4-1.6,18.8-2.5,28.2c-0.7,8.6-1.5,17.2-2.2,25.8c-0.2,2.6-0.1,5.1,0.8,7.6
		c0.5,1.5,1.2,2.9,2.3,4.1c5.9,6.3,11.7,12.7,17.6,19c3.4,3.7,7.7,5,12.6,4c2.8-0.6,4.9-2.3,6.8-4.3c2.4-2.6,4.7-5.3,7-7.9
		c3.4-3.8,6.7-7.7,10.2-11.5c3.2-3.5,4.2-7.5,2.8-12c-1.3-4.1-1.6-8.5-2.3-12.7c-2.6-15.6-5-31.2-7.5-46.9
		c-2.4-15.2-4.8-30.3-7.1-45.5c-0.8-5-1.6-10.1-2.5-15.1c-0.3-1.9,0-3.3,1.5-4.7c5-5,8.3-11,9.4-17.9c0.4-2.5,1.4-3.4,3.7-4.1
		c17.8-5.1,34.3-13,49.8-23.1c9.3-6,17.9-12.8,26.2-20.2c0.7-0.6,1.5-1.2,2.2-1.8c3.9-0.2,4.6,3,5.3,5.6c1,3.6,0.5,7.3-0.4,10.9
		c-0.6,2.3,0,3.5,2.7,3.8c6.5,0.5,12.6,2.2,16.8,7.9c1.5,2,4.1,1.5,6.3,1.5c10.9-0.2,21.7,0.8,32.2,3.9c18,5.3,29.7,16.3,32,35.8
		c0.6,4.7-0.3,9.3-0.9,13.8c-0.4,3.5,0.7,3.9,3.6,3c8.3-2.7,16.9-3,25.6-2.7c12.3,0.4,21.1,8.3,22.8,20.4c0.8,5.9,1,5.9,6.8,5.6
		c9.9-0.5,19.8-1.2,29.5,1.7c14.9,4.4,21.1,15,17.4,30.1c-2.6,10.9-7.8,20.5-13.9,29.9c-0.8,1.2-1.5,2.4-2.4,3.6
		c-1.5,2.2-1,3.4,1.5,4.2c3.4,1.1,6.5,2.6,9.5,4.4c9.4,5.8,11.5,14.9,5.9,24.3c-0.7,1.2-1.4,2.6-2.5,3.5c-5,4.6-5.2,9.6-3.1,15.9
		c6.2,19.3,10.7,39.1,13.1,59.3c2.2,18.4,2.7,36.6-4.7,54.2c-2.4,5.6-5.4,10.8-9.5,15.4c-8.4,9.4-19.8,11.2-30.2,4.2
		c-9.6-6.5-16.1-15.8-21-26.3C1115.8,915.9,1115.8,913.4,1118.4,911.6z"/>
	<path class="st3" d="M960.1,583.4c-14.9,13.2-31.8,22.9-50.5,29.7c-7,2.6-14,5.4-21.3,7.2c-13.6,3.4-27.3,5-41.3,4.2
		c-11.2-0.6-22.2-2.9-32.7-6.7c-1.4-0.5-2.7-1.1-4.1-1.5c-13.1-3.3-24.4-10.1-34.7-18.6c-7.7-6.4-14.2-13.7-20.1-21.8
		c-1.4-1.9-2.1-3.9-2.1-6.2c-0.1-5.6-0.2-11.2-0.4-16.8c-0.4-8.9-1-17.9-2.7-26.7c-0.2-1.3-0.5-2.5-0.8-3.7c-2.2-8-2-16.1-0.2-24.2
		c0.3-1.4,0.6-2.9,1.3-4.1c2.8-5,2.6-10.2,1.3-15.4c-1.7-6.8-4.7-12.9-10.4-17.4c-1.1-0.9-2-2-2.8-3.2c-1.6-2.5-1.6-5.1-0.1-7.7
		c0.6-1.1,1.5-2.1,2.2-3.1c2.8-4,4.5-8.4,5.1-13.3c0.1-0.8,0.2-1.6,0.1-2.4c-1.4-14.2-1.8-28.4-1.9-42.6c-0.1-13.3,0.2-26.5,1-39.8
		c0.7-11.2,1.8-22.3,3.2-33.4c1.9-14.4,3.9-28.8,8.6-42.7c4.4-12.9,10-25.2,17.9-36.4c10.4-14.5,23.5-25.6,40.3-32
		c1.3-0.5,2.7-1,3.7-2.2c2.1-2.5,2.3-5.2,0.4-7.8c-2.1-2.8-4.2-5.7-5.9-8.7c-1.3-2.3-1.9-4.7-2-7.3c0-0.8,0.1-1.6,0.3-2.4
		c0.3-1.2,1.4-1.8,2.6-1.4c1.6,0.5,2.7,1.5,3.8,2.8c3.7,4.3,6.5,9.1,7.8,14.7c0.6,2.6,2.2,4.1,4.4,5.3c1.8,0.9,3.4,0.8,4.9-0.4
		c2.2-1.8,3.7-3.8,3.4-6.9c-0.4-4.8-0.2-9.6,1-14.3c1.2-4.5,2.9-8.8,6.2-12.3c1.7-1.8,3.7-2.3,6.1-1.8c1.5,0.3,2.6,1.1,3.1,2.6
		c1.8,4.6,2.5,9.2,0.7,14c-1.6,4.4-2.8,8.8-6.3,12.2c-0.6,0.6-0.9,1.7-1.3,2.6c-1.6,4.3,1,8.1,5.6,8.1c5.8-0.1,11.5,0,17.2,0.8
		c7.7,1,15,3,21.5,7.5c7.4,7.4,10.2,17,12.9,26.7c0.3,1.2,0.5,2.5,0.8,3.7c0.4,2.4,1.7,3.6,4.2,3.4c2.2-0.1,4.5-0.1,6.6,0.8
		c4,1.8,5.6,5.7,3.8,11.4c-1.2,3.8-0.5,5,3.6,5.1c6.1,0.2,11.4,5.1,13,11c1.6,5.7-1.4,10.5-8,13.2c-13.6-3.8-27.6-2-41.4-2.1
		c-33.7-0.2-67.4-0.1-101.1-0.1c-14.9,0-26.4,9.8-27.6,24.5c-1,12.4,4.2,26.9,18.7,32.5c1.3,0.5,2.7,1,4,1.5
		c4.7,1.9,5.7,3.4,4.9,8.4c-1.2,7.6-2.3,15.1-2.1,22.8c1,30.1,20.7,57.2,48.9,66.2c7.9,2.5,16.1,3.8,24.5,2.5c2-0.3,4.1-0.4,6.2,0.4
		c20.5,5.4,38.8,1.6,54.8-12.5c2.2-1.9,4.2-5.7,7.4-4.2c3.4,1.6,1.5,5.5,1.1,8.3c-1.9,14.9-2,29.9-1.8,44.9
		c0.3,21.4,3.4,42.2,12.7,61.8c1.3,2.7,1.6,5.5,1.7,8.4c0.2,13.5,4.7,24.6,17.4,31.2C958.8,580.5,960.4,581.3,960.1,583.4z"/>
	<path class="st4" d="M1118.4,911.6c-1.1,1.6-1,3.3-0.2,5c1.6,3.5,3.3,6.9,5.5,10.1c3.1,4.5,6.4,8.7,10.3,12.6
		c3.2,3.2,7.1,5.4,11.4,6.9c6.2,2.1,11.6,0.7,16.8-2.9c3.5-2.4,6.1-5.6,8.4-9.1c4.5-6.9,7.5-14.4,9.3-22.5c2-9.1,2.4-18.4,1.7-27.7
		c-0.7-8.9-1.7-17.8-3.2-26.6c-3.1-17.7-7.6-34.9-12.9-52c-0.1-0.5-0.3-0.9-0.5-1.4c-0.5-1.4-0.2-2.4,0.8-3.5
		c1.9-2.2,3.8-4.3,5.6-6.6c1.8-2.3,3.3-4.7,4.1-7.5c1.5-5.2,0.7-9.7-3.2-13.7c-3.9-3.8-8.7-6.1-13.8-7.5c-6.8-1.9-5.7-2-2.4-6.8
		c4.1-6.1,8-12.4,11.2-19c2.5-5.1,4.3-10.3,5.5-15.8c0.8-4,0.8-7.9-0.2-11.9c-1.1-4.2-3.4-7.5-6.9-10c-5.1-3.6-11-5.1-17-5.9
		c-3.3-0.5-6.7-0.5-10-0.6c-4.4-0.1-8.9,0.4-13.3,1c-5.2,0.7-5.2,0.8-6.1-4.3c-0.2-1.4-0.3-2.9-0.5-4.3c-1.1-6.7-4.3-11.9-10.6-15.1
		c-3.5-1.8-7.1-2.7-11-2.9c-9.4-0.5-18.5,0.8-27.4,3.6c-1.2,0.4-2.3,1-3.6,0.8c-0.5-0.4-0.4-0.9-0.3-1.4c0.5-3.6,1.3-7.2,1.6-10.9
		c1-12.2-2-23.2-11.3-31.8c-5.2-4.8-11.6-8-18.4-10c-9.3-2.7-18.7-4-28.4-4c-2.9,0-5.8,0-8.6,0.1c-1.4,0-2.5-0.3-3.2-1.7
		c-2.3-4.6-6.2-6.6-11.1-7.2c-2.9-0.4-5.7-0.9-8.6-0.5c-1.3,0.2-1.7-0.5-1.4-1.8c0.6-2.2,1.3-4.3,1.7-6.5c0.8-4.2,0.9-8.3-1.5-12.1
		c-0.5-0.8-1.1-1.5-2-2.1c5.4-5.5,10.7-10.9,16.1-16.4c0.2-0.2,0.5-0.3,0.9-0.5c0.5,0.5,1.2,1,1.7,1.6c8.2,8,18.1,12.4,29.3,14.3
		c7.6,1.4,15.3,1.5,22.9,0.3c0.9-0.1,1.9-0.2,2.9-0.2c0.8,0,1.7,0.1,1.9,1c0.2,0.9-0.2,1.6-0.9,2.1c-0.8,0.6-1.6,1.1-2.4,1.6
		c-1.2,0.8-2.3,1.7-3.2,2.9c-1.6,2.3-1.7,5.3-0.2,7.2c1.6,2,5,3,7.4,2c1.2-0.5,2.3-1.1,3.4-1.7c8.5-4.1,17.4-6.2,26.9-5.5
		c0.8,0.1,1.6,0.2,2.4,0.3c0.6,0.1,0.9,0.9,0.5,1.5c-0.6,0.8-1.1,1.5-1.7,2.3c-3.6,4.4-0.4,9.4,4,10.2c0.9,0.2,1.9,0.3,2.8,0.5
		c9.7,1.5,18.8,5,27.8,8.8c14.5,6.2,27.7,14.6,39.7,24.8c9.8,8.3,19.2,16.9,28,26.2c10.5,11.2,20.1,23.2,28.1,36.4
		c5.8,9.6,10.6,19.7,14,30.4c0.8,2.5,1.4,4.9,1.3,7.5c-0.1,2.2-0.9,3.1-3,3.8c-1.9,0.6-3.8,0.6-5.7,0.2c-1.6-0.4-3.1-0.6-4.4,0.8
		c-1.5,1.7-2.7,3.6-2.4,6c0.3,2.1,0.7,4.1,1,6.1c3.7,27.7,4.6,55.4,3.4,83.3c-1,22.4-3.8,44.6-9.3,66.4c-4,15.9-9.5,31.2-17.1,45.7
		c-5.1,9.7-11.4,18.5-18.2,27c-2.8,3.6-6.2,6.4-10.3,8.5c-6.1,3.2-12.3,3.2-18.4,0.2c-2.5-1.2-4.7-2.7-6.7-4.6c-2-1.9-4-3.7-5.7-5.8
		c-12.7-15.9-22.4-33.4-27.8-53.1c0-0.2-0.1-0.3-0.1-0.5c-1.6-7.8-2.5-5.8,4.3-9C1111.4,915.2,1114.9,913.4,1118.4,911.6z"/>
	<path class="st4" d="M912.1,976.9c0.5,0.4,1.1,0.7,1.6,1.1c5.5,4.2,12.3,4,17.6-0.4c0.6-0.5,1.2-1.2,1.8-1.5
		c5.3-2.8,8.7-7.5,11.7-12.4c2.7-4.3,5-8.9,7.4-13.4c7.3-13.3,10.7-28,14.4-42.5c2.6-10.2,4.8-20.5,7.2-30.8c2-9,7.1-15.5,15.5-19.5
		c3.3-1.6,6.7-1.8,10.3-1.1c6.7,1.3,12.7,4.3,18.4,8c1.7,1.1,3.4,2.3,5.2,3.5c4.4,2.9,9,2.1,12.2-2.1c0.2-0.3,0.3-0.6,0.5-0.8
		c0.9-1.1,1.3-1.2,2.3-0.5c2,1.5,4,3.1,6.1,4.6c1.2,0.9,2.4,1.6,3.6,2.4c1.9,1.2,3.6,2.9,6.1,2.4c3-0.5,5.9-1.2,8.3-3.4
		c2.9-2.6,5.2-5.6,6.3-9.4c0.7-2.3,1.5-4.6,1.7-7c0.2-2.4,1.5-3.4,3.4-4.1c3.4-1.3,6.8-2.7,10.3-3.9c4.7-1.6,9.5-2.6,14.4-3.4
		c2.1-0.3,4.1-0.3,6.2,0.1c3.1,0.6,5.6,2,7.7,4.5c2.7,3.3,4.8,6.8,6,10.8c2.3,7.5,3.9,15.1,4.1,23c0.1,3.2,0.9,6.3,0.9,9.5
		c0,2.8-0.1,5.4-1.6,7.8c-0.5,0.8-0.9,1.7-0.1,2.6c-4.1,2.4-8.7,3.9-13.2,5.5c-14,5.1-28.4,8.4-43.2,10.7
		c-14.2,2.2-28.5,3.5-42.9,3.7c-1.6,0-3.2,0.4-4.8-0.4c0.1-2.9,1.3-5.6,1.9-8.4c0.5-2.3-0.2-4-1.8-5.6c-3.4-3.1-7.3-2.5-9.5,1.6
		c-0.5,1-0.7,2.1-1,3.2c-5.3,18.5-12,36.4-21,53.4c-5.8,11.1-12.5,21.6-21,30.8c-2.2,2.4-4.4,4.7-6.9,6.6c-3.7,2.9-7.9,4.9-12.6,5.3
		c-4.5,0.4-8.6-0.5-12.4-2.9c-2.6-1.6-5-3.6-6.8-6C921,992.1,915.9,984.9,912.1,976.9z"/>
	<path class="st4" d="M929.5,284.1c1.4-1.3,3-2.4,4.3-3.8c2.2-2.2,2.8-4.8,1.7-7.9c-1.2-3.5-3.5-6-6.4-8.2c-1.4-1.1-3.2-1.4-5-1.4
		c-2.1,0-4.1,0-6.2,0c-1.2,0-1.7-0.8-1.2-2c1.1-2.5,2.3-4.9,2.8-7.6c0.3-1.5,0.3-2.8-0.2-4.2c-0.8-1.9-2.2-3.2-4.3-3.3
		c-2.7-0.2-5.4-0.2-8.1,0.2c-1.7,0.2-2.1,0-2.3-1.6c-1-10-4.7-19.1-9.3-28c-1.1-2.1-2.5-4.1-3-6.5c0.6,0.2,1.3,0.2,1.8,0.5
		c7.7,3.8,15.1,8.3,21.9,13.7c5,4,9.3,8.7,13.1,13.9c5.3,7.1,9.9,14.5,13.3,22.7c2.4,5.8,3.9,11.8,4.4,18.1
		c0.6,7.4,3.5,13.9,8.5,19.4c1.3,1.4,2.8,2.5,4.5,3.5c2.2,1.3,4.3,2.7,6.2,4.5c3.6,3.7,3.5,8.7-0.3,12.3c-1.2,1.1-2.6,1.9-4,2.5
		c-1.6,0.7-3.1,1.6-4.4,2.8c-2.4,2.2-2.7,4.6-1,7.3c0.2,0.3,0.3,0.6,0.5,0.8c5.6,6.6,5.8,14.2,4,22.2c-0.5,2-1.2,4-2,5.9
		c-0.9,1.9-1.3,3.9-1.3,6c-0.4,22.4-0.7,44.7-1.1,67.1c-0.3,15.8,0.3,31.6,2.2,47.4c1.7,14.6,4.1,29.1,8.5,43.2
		c3.6,11.8,8.3,23.2,16.3,32.8c0.9,1.1,0.7,2-0.1,3c-4.7,6.3-9.9,12.1-15.6,17.5c-2.4,2.3-4.5,4.9-7.4,6.7c-1-1.1-2.5-1.3-3.8-1.9
		c-6.1-3-10.8-7.4-13.8-13.5c-2.7-5.3-4.6-11-4.4-17c0.1-4.9-1.1-9.3-3.3-13.7c-3.5-7-5.4-14.7-7.1-22.3c-1.5-7-2.4-14.1-3.2-21.3
		c-1.5-13.6-0.9-27.1-0.7-40.7c0.1-5.7,1-11.4,1.5-17.1c0.2-1.7,0.4-3.5,0.4-5.3c0-1.5,1.4-2.9,0.1-4.4c-1.7,0.4-2.5,1.9-3.6,3
		c-9.6,9.6-21.3,15.2-34.7,16.9c-7.5,0.9-15,0.3-22.3-1.9c-0.4-0.1-0.8-0.6-1.1-0.9c0.3-2.7,2.7-2.9,4.5-3.5
		c27.4-9.7,42.7-29.7,48.7-57.4c2.3-10.4,1.3-20.9-0.9-31.3c-1.4-6.6-0.8-7.6,5.3-10.3c15.8-6.9,24.1-22.5,20.1-38
		c-1.5-5.9-5.1-10.2-9.5-14.1C931.1,287.3,929.1,286.5,929.5,284.1z"/>
	<path class="st3" d="M1208.6,676.6c-4.4-5.1-8.7-10.2-13.1-15.2c-6.4-7.3-13.1-14.5-20.2-21.1c-4.2-3.9-8.5-7.7-13.2-11.1
		c-0.8-0.5-1.7-1-1.9-2.1c14.8-6.7,27.9-16.1,39.5-27.5c9.7-9.6,17.9-20.4,24.7-32.3c3.2-1.4,4,1.4,4.8,3.1c5.1,11.2,7.5,23,6,35.4
		c-1.7,13.9-7.8,25.9-16.8,36.4c-2.2,2.5-2.8,4.7-1.2,7.7c1.1,2.1,2.2,4.4,0.4,6.7c-1.4,1-2.8,2-4.3,3c1.8,1.8,4.2,1.5,6.1,2.6
		c2.2,3.8,2,7-1.1,10.7C1215.8,675.8,1213.1,678.7,1208.6,676.6z"/>
	<path class="st4" d="M850.7,901.2c3.3,1.6,6.5,3.3,9.9,4.8c3.8,1.7,7.5,3.5,11.4,4.8c3.1,1,4.6,2.9,5.6,5.9
		c2.5,7.4,4.7,14.9,6.6,22.5c0.4,1.7,0.6,3.5,1.2,5.1c0.9,2.5,0.5,4.5-0.8,6.8c-5.6,9.7-11.7,19-19.5,27.2c-2.9,3-5.9,5.8-9.3,8.2
		c-3.3,2.3-6.8,4.2-10.7,5.3c-3.9,1.1-7.6,0.8-11.1-1.1c-3-1.5-5.6-3.7-7.8-6.2c-3.5-4-6.2-8.4-8.2-13.4c0.7-0.5,1.5-0.8,2.2-0.6
		c8.5,1.6,13-3.5,16.6-10c5.3-9.8,7.3-20.6,9-31.5c1-6.6,1.9-13.2,2.1-19.9C848.2,906.3,848.2,903.2,850.7,901.2z"/>
	<path class="st3" d="M850.7,901.2c-1.1,15.9-2.5,31.7-6.8,47.1c-1.6,5.8-3.7,11.5-7.2,16.5c-0.9,1.3-1.9,2.6-3,3.7
		c-4.7,4.8-9.4,5.5-15.6,2.6c-4.2-8.2-6.4-17-7.5-26.1c-1.5-12.2-2.3-24.5-2.1-36.8c0.2-11.2,1.3-22.3,3-33.4c0.2-1,0.1-2.2,1.2-3
		c0.4,0.3,0.8,0.5,1.1,0.8c10,10.5,21.4,19.2,33.8,26.6c0.4,0.2,0.8,0.5,1.2,0.8c0.4,0.6,1.3,0.4,1.7,1.1L850.7,901.2z"/>
	<path class="st4" d="M1061,930.8c1.9-1.1,4-0.9,6-1.3c6.4-1.3,12.9-2.5,19.2-4.3c0.5-0.1,0.9-0.2,1.4-0.3c1.9-0.4,2.4-0.2,3,1.4
		c2,5.4,4,10.8,6.1,16.1c0.5,1.3,0.6,2.4,0.1,3.7c-5.3,14.2-12.7,27.2-24,37.6c-4.9,4.5-10.4,7.9-16.6,10.3
		c-4.1,1.6-8.1,1.6-12.2,0.4c-4.4-1.3-8.2-3.6-11.8-6.2c-5.7-4.2-10.6-9.2-15.2-14.6c-1.7-2.1-3.7-4-5-6.4c4.7-2.2,9.9-1.7,14.4-0.6
		c10.5,2.5,16.6-3.3,22.3-10.3c4.5-5.6,6.4-12.4,8.5-19.1C1058,934.8,1058.6,932.3,1061,930.8z"/>
	<path class="st3" d="M755,214.8c-8.4-8.2-13.1-18.3-15.6-29.6c-2.3-10.7-2.1-21.5-0.5-32.3c0.4-2.8,0.9-5.7,1.5-8.5
		c2.8-13.2,9.4-24.2,19.5-33.2c4-3.5,8.5-6.3,13.5-7.9c5.3-1.7,10.6-2.1,15.8,0.4c0.9,1.3,2,2.5,2,4.2c-0.2,5.5,1.2,11,1,16.5
		c-0.1,2.1,0.2,4.6-2.9,5.1c-0.3-0.2-0.5-0.3-0.7-0.6c-2.8-3.2-6.3-4.7-10.5-5c-4.3-0.3-8.2,0.6-11.9,2.8c-4.1,2.4-7.2,5.8-9.3,10
		c-5.1,10.1-6.9,20.8-5.5,32c1.7,13.6,7.1,25.7,14.4,37.1c1.1,1.7,2.3,3.5,3.4,5.2c-1.3,3.7-5.9,5.9-10.7,5.1
		C757.3,215.9,756,215.6,755,214.8z"/>
	<path class="st5" d="M942.5,162.8c-0.3,10.3-2,19.7-5.4,28.8c-0.4,1.2-0.9,2.4-1.8,3.3c-3.8,4.1-7.5,8.3-11.3,12.4
		c-0.8,0.8-1.6,1-2.5,0.2c-2.9-2.5-5.8-5-8.5-7.7c-1.3-1.4-2-2.8-1.9-4.7c0.2-4,0.2-8,0.3-12c0.3-12.1,0.7-24.3,1-36.4
		c0.1-1.8,0.1-3.5,0.3-5.3c0.6-4.3,2.9-7.8,6-10.7c2-1.8,4.6-2.1,7.2-1.8c2.8,0.3,5.2,1.6,7.2,3.6c2.3,2.3,3.9,5,5.1,8
		C941.3,147.9,942.3,155.6,942.5,162.8z"/>
	<path class="st3" d="M903.5,202.4c-2.6-0.9-4.6-2.8-7-4.1c-1.3-0.7-1.7-1.7-1.7-3.1c0-4.9-0.1-9.9-0.1-14.8c0-18,0-36.1,0-54.1
		c0-4.9,1.3-9.5,3.2-13.9c1-2.2,2.3-4.2,3.9-6c3-3.2,6.8-4.8,11.2-4.4c12.8,1.2,23.1,6.7,30.2,17.7c0.9,1.5,2,2.9,3,4.3
		c3,4.4,5.7,8.8,7.4,13.9c0.9,4.7,2.1,9.4,0.8,14.1c-0.5,1.7-0.5,4.7-3.7,2.3c-1-6.5-2.9-12.8-6-18.5c-3.3-6.1-8.1-10.6-15-12.5
		c-4.3-1.2-8.5-0.9-12.7,0.4c-0.7,0.2-1.5,0.6-2.1,1.1c-2.6,1.9-4.8,4.1-6.6,6.8c-1.8,2.6-2.5,5.4-2.6,8.6
		c-0.4,12.6-0.8,25.2-1.2,37.8c-0.3,7.8-0.5,15.6-0.8,23.4c0.3,0.2,0.4,0.5,0.3,0.7C903.8,202.3,903.7,202.4,903.5,202.4z"/>
	<path class="st5" d="M788.8,171.5c0.2,5,0.4,12.6,0.8,20.3c0.1,2.3-0.5,3.9-2.4,5.3c-4.2,3-7.7,6.7-10.8,10.8
		c-1.3,1.6-1.8,1.6-2.8-0.1c-4.5-7.4-8-15.3-10.4-23.6c-2.7-9.5-3.9-19.1-2.7-28.9c0.6-4.6,1.7-9.1,3.5-13.4
		c1.2-2.8,2.8-5.4,5.1-7.5c2.2-2,4.8-3.1,7.9-2.9c2.5,0.1,4.6,1,6.3,3c2.6,3.2,4.3,6.6,4.4,10.8C787.9,153.1,788.4,161,788.8,171.5z
		"/>
	<path class="st3" d="M1061,930.8c-1.9,7.4-4.1,14.8-7.5,21.7c-2.2,4.4-5,8.2-9,11c-1.3,0.9-2.5,2-3.6,3.1c-1.7,1.6-3.7,2.5-6.1,2.4
		c-2.2-0.1-4.5,0-6.7-0.3c-2.7-0.4-5.4-0.4-8.1-0.4c-2.7-0.1-5.4-0.3-8-1c-2.9-3.2-5.1-6.9-7.7-10.3c-0.9-1.2-0.8-2.2-0.2-3.5
		c2.5-5.7,4.9-11.4,7.1-17.2c0.8-2,2-2.5,4-2.4c8.5,0.1,16.9,0,25.3-1c5.2-0.6,10.4-1.2,15.7-1.7
		C1057.8,931,1059.4,930.9,1061,930.8z"/>
	<path class="st4" d="M1217.5,656.5c0.1-2-0.9-3.7-1.8-5.4c-0.8-1.4-1.6-2.8-2.4-4.1c-0.6-1-0.5-1.8,0.2-2.6
		c0.7-0.8,1.6-1.6,2.3-2.4c6.2-7,11.2-14.7,14.3-23.5c3.1-9.2,4.3-18.5,2.8-28.2c-1.1-7.3-3.2-14.3-6.3-20.9c-0.5-1-1-2-2.3-2.1
		c1.1-2.4,2.5-4.7,3.9-7.1c0.8,0.6,1.4,0.9,1.8,1.3c8.1,8.5,14.7,18.1,18.6,29.2c4.1,11.6,4.3,23.1-0.7,34.5
		c-1.9,4.4-4.4,8.5-7.5,12.2C1234,645.2,1226.3,651.5,1217.5,656.5z"/>
	<path class="st6" d="M857.5,713.3c0-1.6-0.1-3.2,0-4.8c0.8-11.3,1.7-22.6,2.5-33.9c0.3-4.6,0.7-9.2,1.1-13.8
		c0.2-1.9,0.6-2.2,2.4-2.2c2.1,0,4.1,0,6.2,0c1.8,0,2.1,0.2,2.5,2.2c0.8,4.7,1.6,9.4,2.4,14.2c1,6,1.9,12,2.8,18
		c0.1,0.6,0,1.3,0,1.9c-4.4,6.9-10.8,11.8-16.5,17.5C860,713.1,858.9,713.7,857.5,713.3z"/>
	<path class="st7" d="M950.7,154.4c0.9,0.3,1.7,0.3,1.7-0.8c0.2-4.7,1.4-9.4,1-14.2c0-0.5,0.1-0.9,0.2-1.4
		c2.7,5.2,3.8,10.8,4.7,16.4c1,6.4,0.9,12.7,0,19.1c-1,7.3-2.1,14.5-4.8,21.4c-3.1,7.8-7.3,14.9-13.5,20.7c-1.4,1.3-2.8,2.6-4.4,3.7
		c-3.6,2.8-3.8,2.7-7.4-1.2c0.9-1.2,1.9-2.5,2.8-3.8c7.9-10.7,14.2-22.3,17.7-35.3c1.9-7,2.7-14.1,1.9-21.3
		C950.5,156.7,950.7,155.5,950.7,154.4z"/>
	<path class="st8" d="M853.7,782c-1.3-0.7-1.4-2-1.3-3.3c0.3-6.3,0.7-12.6,1.5-18.9c1.7-5.1,6-8.1,9.6-11.6
		c4.9-4.7,10.1-9.1,14.9-14c1.3-1.3,2.6-2.9,4.9-2.1c1.1,2.5,1.1,5.2,1.5,7.9c0.5,3.3,1.5,6.5,1.3,9.8c-0.6,1.9-1.6,3.4-3,4.8
		c-8.1,8-16.2,16.2-24.3,24.2C857.4,780.3,856.1,782,853.7,782z"/>
	<path class="st8" d="M888,761.2c1.5,6,2.1,12.2,3.1,18.3c0.3,1.7-0.2,3-1.4,4.3c-5.4,5.6-10.8,11.3-16.1,16.9
		c-0.2,0.2-0.5,0.4-0.7,0.7c-0.7,0.6-1.4,0.7-2.1-0.1c-4.2-4.8-8.8-9.1-12.6-14.3c0.2-2.6,2.1-4.2,3.9-5.8c7-6,13.8-12.3,20.9-18.1
		C884.5,761.9,885.7,760.1,888,761.2z"/>
	<path class="st7" d="M789.3,129.5c0.7-0.5,0.9-1.3,0.9-2.1c0-2.2,0.2-4.5-0.2-6.6c-0.9-5.7-0.7-11.4-0.8-17.1
		c3.9,1,6.2,3.8,7.7,7.2c0.9,2,1.4,4.2,1.9,6.4c1.8,7.7,2.2,15.5,2.2,23.3c0,8.1,0,16.3,0,24.4c0,2.1-0.1,4.1-0.7,6.1
		c-1.8,5.8-1.7,11.7,0.1,17.4c0.7,2.3,0.8,4.7,0.7,7.1c-0.1,1.8-0.6,2.4-2.5,3c-0.7,0.2-1.2,0-1.4-0.8c-0.1-0.5-0.1-1-0.1-1.4
		c-0.3-4.6-0.6-9.2-0.8-13.9c-0.7-14-1.5-28-2.1-42.1c-0.2-3.7-1.3-6.8-3.7-9.6C790,130.6,789.7,130,789.3,129.5z"/>
	<path class="st6" d="M879.3,705.7c1,5.3,2.2,10.6,2.4,16c0.1,2.5-1.3,4.2-3,5.6c-6.7,5.4-12.4,11.8-18.5,17.6
		c-1.4,1.4-2.8,3.2-5.2,2.5c-0.4-4.8,0.8-9.5,0.8-14.3c0-2.2,0-4.5,0.8-6.6c1.3-3.4,3.5-6,6.4-8.2c4.1-3.1,7.4-7.1,11.1-10.5
		C875.4,706.6,876.7,704.6,879.3,705.7z"/>
	<path class="st9" d="M888,761.2c-6,5.2-12,10.4-18,15.5c-4,3.4-7.9,6.8-11.9,10.3c-1.7-1.4-3.3-3-4.5-5
		c10.1-10.1,20.2-20.2,30.3-30.3c0.7-0.7,1.5-1.2,2.2-1.8C887.3,753.6,887.9,757.3,888,761.2z"/>
	<path class="st10" d="M1208.6,676.6c6-1.1,10.1-5.4,10.7-11.2c0.1-1.1,0-2.2,0-3.3c0.6,0,1.3,0,1.9,0c3.7,0.3,7.3,0.1,10.8-1.6
		c1.7-0.8,2.2-0.5,3.1,1.1c0.7,1.3,1.2,2.6,1.7,3.9c1.1,3.2,0.3,6-2.4,8.1c-1,0.8-2,1.5-2.7,2.6c-1.6,2.4-4.2,3.4-6.9,3.8
		c-4.7,0.6-9.2-0.1-13.7-1.4C1209.9,678.4,1208.9,677.8,1208.6,676.6z"/>
	<path class="st9" d="M854.8,747.5c3.6-2.7,6.5-6.1,9.7-9.2c5.7-5.5,11.4-11.1,17.1-16.6c1,3.4,1.7,6.9,1.7,10.5
		c-1.2,1-2.4,2-3.6,3.1c-7.8,7.4-15.6,14.9-23.3,22.3c-0.8,0.8-1.7,1.4-2.5,2.2C853.7,755.7,854.3,751.6,854.8,747.5z"/>
	<path class="st9" d="M879.3,705.7c-1.4,1.3-2.9,2.5-4.3,3.8c-6.2,5.7-12.3,11.4-18.5,17.1c-0.1-4.5-0.1-9,1-13.4
		c2.6-1.8,4.6-4.4,6.8-6.6c3.5-3.4,6.9-7,10.3-10.5c0.8-0.8,1.5-1.6,2.8-1.5C878,698.4,878.6,702.1,879.3,705.7z"/>
	<path class="st11" d="M856.9,636.5c4.9-0.5,9.9-0.2,14.8-1.1c2-0.4,4.1-0.6,6.1-0.9c1.1-0.2,2.2-0.6,3.3,0
		c-1.4,5.5-5.7,11-10.3,13.1c-1.8,0.8-3.6,1.4-5.6,0.9C859.2,645.6,856.2,641.4,856.9,636.5z"/>
	<path class="st12" d="M1113.8,979.6c-0.5,0.3-1,0.9-1.6,0.9c-5.9,0.1-11.9,0.7-17.8-0.8c3-5.4,6.4-10.5,9.1-16.4
		c2.4,2.6,3.5,5.7,5.2,8.3C1110.5,974.2,1112.1,977,1113.8,979.6z"/>
	<path class="st13" d="M755,214.8c4.3,0.1,8.4-1.2,12.6-2.2c0.8-0.2,1.3-0.9,1.7-1.6c1.6,2,3.1,3.9,4.8,6c-1.1,1.4-2,2.7-2.9,3.9
		c-3.2,4.1-1.9,4.5-7.4,1.2C760.5,220.1,757.5,217.7,755,214.8z"/>
	<path class="st14" d="M896.9,977.8c-0.8,0.9-1.9,1-3,1c-3.3,0-6.5-0.1-9.8-0.1c2.6-4,5.1-8,7.7-12c0.1-0.1,0.3-0.1,0.7-0.2
		c1.2,1.6,1.5,3.6,2.3,5.4C895.5,973.9,896.2,975.8,896.9,977.8z"/>
	<path class="st15" d="M856.9,636.5c1.2,3.5,3.5,6.3,5.9,9.1c0.8,1,1.6,1.9,2.4,2.9c-7.3-0.2-12.1-4.1-14.3-11.9
		C852.9,636,854.9,636.1,856.9,636.5z"/>
	<path class="st16" d="M1000.5,976.9c-2.4,1.4-2.9,1.4-5.1-0.3c0.4-1.2,0.8-2.4,1.9-3.2C998.9,974.1,999.6,975.6,1000.5,976.9z"/>
	<path class="st17" d="M1148.9,884.6c0.1-0.1,0.1-0.3,0.2-0.4c1.1-1,1.8-2.7,3.6-2.7c0.1,0,0.2,0.2,0.3,0.4c0.2,2.1-1.2,3.1-2.7,4.1
		C1149.8,885.4,1149.4,885,1148.9,884.6z"/>
	<path class="st18" d="M903.5,202.4c0-0.3,0-0.6,0.1-1c0.9,0.7,1.8,1.4,2.7,2.1c0.4,0.4,0.5,0.9,0.2,1.4
		C905.4,204.2,903.9,204,903.5,202.4z"/>
	<path class="st19" d="M906.5,204.9c-0.1-0.5-0.1-0.9-0.2-1.4c0.9,0.4,1.6,0.9,2.1,1.7c0.2,0.3,0.2,0.6-0.1,0.8
		c-0.1,0.1-0.3,0.1-0.4,0C907.5,205.6,907,205.2,906.5,204.9z"/>
	<path class="st4" d="M850.6,901.1c-0.8,0.1-1.3-0.4-1.7-1.1C849.8,900,850.3,900.4,850.6,901.1z"/>
	<path class="st0" d="M929.5,284.1c0.2,0.2,0.4,0.5,0.7,0.6c14.4,7.6,17.2,24.3,13.2,36c-3.2,9.4-9.5,16.1-18.3,20.6
		c-1.7,0.9-3.5,1.5-5.3,2.2c-2.5,1-2.5,1-2,3.4c0.2,1.1,0.5,2.2,0.7,3.3c2.8,14.3,3.3,28.7-1.5,42.6c-5.7,17-16,30.8-31,40.9
		c-6,4.1-12.6,6.8-19.7,8.6c-0.8,0.2-1.6,0.2-2.2,0.9c-1.9,0.1-3.8,0.2-5.7,0.4c-14.6,1.4-28.2-1.6-40.7-9.5
		c-18.4-11.6-29.6-28.3-33.8-49.5c-2.4-11.9-1.6-23.8,1.1-35.7c0.3-1.2,0.5-2.5,0.8-3.7c-1.2-1.2-2.7-1.1-4.1-1.5
		c-13.3-3.4-21.1-12-23.9-25.2c-1.1-5.2-1.5-10.4-0.2-15.7c1.8-7.1,5.6-12.8,11.9-16.7c5.2-3.3,10.9-5.1,17.2-5.1
		c43.1,0,86.3,0.1,129.4,0C920.9,280.8,925.1,282.4,929.5,284.1z"/>
	<path class="st20" d="M847.8,303.1c3.8-1.1,7.6-0.2,11.4,0.2c0.9,0.1,1.4,0.6,1.6,1.5c0.1,0.8,0.3,1.6,0.3,2.4
		c1.5,15.9,14,31.5,32.9,35.5c3.1,0.7,6.3,1,9.5,0.9c1.1,0,1.8,0.4,2.1,1.5c0.8,2.6,1.8,5.1,1.9,7.9c0.9,7.9-1.4,15.2-4.1,22.3
		c-4.3,11.4-9.5,22.4-18.3,31.2c-12.8,12.7-28,17.3-45.6,13.3c-11.2-2.6-21.5-7.1-31.2-13.3c-2.6-1.6-4.6-3.9-6.6-6.2
		c-3.5-5.3-5.1-11.3-6.4-17.4c-2-9.8-2-19.7-0.1-29.5c0.1-0.4,0.4-0.9,0.6-1.3c2.7-1.8,5.8-1.6,8.8-1.8
		c22.9-1.2,37.9-15.4,40.5-38.2C845.5,309,845.4,305.6,847.8,303.1z"/>
	<path class="st21" d="M801.8,400.2c3.6,2.1,7.1,4.2,10.7,6.4c8.7,5.3,18,9,27.8,11.3c11.3,2.7,22.1,1.3,32.4-4.2
		c6.2-3.3,11.2-8,15.4-13.4c7.9-10.3,13-21.9,16.4-34.3c1.2-4.3,2.1-8.7,3.1-13c1.2,2.5,1.3,5.3,1.5,7.9
		c1.5,17.8-2.5,34.3-13.2,48.9c-8.1,11.1-18.8,18.7-32.2,21.9c-12.8,3-25.1,1.5-36.7-4.8c-10.9-5.8-19-14.5-24.8-25.3
		C801.9,401.1,801.9,400.6,801.8,400.2z"/>
	<path class="st21" d="M847.8,303.1c-0.1,7.4-0.9,14.6-3.4,21.6c-3.9,11-11.2,18.8-21.9,23.4c-5.8,2.5-11.8,4-18.1,4.1
		c-0.8,0-1.7-0.1-2.4,0.2c-2.1,0.7-4.1,0.2-6.1-0.4c-0.1-2.3,0.9-4.4,1.5-6.5c0.4-1.4,1.4-2,2.8-2c4.7-0.1,9.2-1,13.5-2.8
		c15.1-6.2,24.2-17.2,26.5-33.6c0.1-0.5,0.1-1,0.2-1.4c0.1-1.3,0.9-2.1,2.1-2.2C844.3,303.2,846.1,303.2,847.8,303.1z"/>
	<path class="st22" d="M802.5,303.2c-2.7,0-5.4,0-8.1,0c-2,0-3.8-0.6-5.3-1.8c-1.8-1.4-2.1-3.6-0.8-5.5c1-1.5,2.4-2.6,4.2-3
		c6.5-1.7,13.1-2.5,19.7-0.7c2.4,0.6,4.4,1.9,5.9,3.9c1.7,2.2,1.2,4.7-1.4,5.9c-1.9,0.9-3.9,1.4-6,1.4
		C807.9,303.2,805.2,303.2,802.5,303.2C802.5,303.2,802.5,303.2,802.5,303.2z"/>
	<path class="st22" d="M909.6,288.8c5.1,0.2,10.1,1,14.8,3.2c1.9,0.9,3.5,2.2,4.9,3.8c0.7,0.9,1.1,1.9,1.2,3.1
		c0.2,2.3-0.8,3.8-3.1,4.1c-2.8,0.4-5.7,0.4-8.5-0.3c-4.2-1.1-8.3-2.3-12.5-3.2c-2.1-0.5-3.9-1.4-5.3-3c-1.9-2.1-1.7-4.4,0.7-6.1
		c1.5-1,3.1-1.6,4.9-1.5C907.7,288.8,908.6,288.8,909.6,288.8z"/>
	<path class="st23" d="M840.1,289.2c0.3-0.2,0.6-0.4,0.9-0.4c6.5,0,13-0.1,19.5-0.1c0.8,0,1.6,0.1,1.6,1.2c-0.1,1.8-0.8,2.8-1.9,2.8
		c-0.2,0-0.3,0-0.5-0.1c-5.7-1.3-11.4-0.5-17.1,0.1c-2.1,0.2-2.3,0.1-2.6-2.3C840,290.1,840.1,289.7,840.1,289.2z"/>
	<path class="st24" d="M931.9,316.6c-1.4,0-2.9,0-4.1-0.9c-0.9-0.6-1.2-1.4-1.1-2.5c0.3-2.1,1.9-3.8,4-4.2c2.1-0.3,4.1,0.9,5,2.9
		c0.8,1.9,0.4,4.7-2.8,4.7C932.6,316.6,932.2,316.6,931.9,316.6z"/>
	<path class="st24" d="M824.2,304.2c2,0,3.7,1.1,4.2,2.7c0.8,2,0.2,4.5-1.3,5.6c-1.2,0.8-2.4,1.4-3.7-0.3c-0.8-1-1.7-1.8-2.5-2.9
		c-1.6-2.2-0.7-4.4,1.9-5C823.4,304.2,823.9,304.2,824.2,304.2z"/>
	<path class="st25" d="M851.5,408.5c-1.4,1.5-2.4,2.8-3.7,3.7c-3.6,2.8-7.3,2.6-11.3,0.7c-3.6-1.7-5.4-4.4-5.5-8.3
		c0-0.9-0.1-1.9,0.9-2.6c1.2,0.7,1.5,2,2.3,3c1,1.2,2.1,2.4,3.6,3.2c1.8,1,3.6,1.3,5.5,0.6c2.9-1.1,4.8-3.2,6.2-5.7
		c0.4-0.8,0.4-1.9,0.4-2.8c-0.5-9.9-1.1-19.8-1.7-29.7c-0.2-3.8-0.6-7.7-0.8-11.5c-0.1-2.5-1.1-4.1-3.5-5.1c-1.9-0.8-3.7-2-5.3-3.2
		c-1.2-0.8-2.2-1.8-3.1-3c-1.8-2.3-1.6-4.5,0.5-6.4c1.6-1.4,3.3-2.7,5.5-2.8c7.5-0.3,15-0.9,22.5-0.3c1.3,0.1,2.5,0.5,3.5,1.4
		c2.6,2.3,3.2,5.3,1.4,8.2c-2.4,3.7-5.2,6.9-10.1,7.3c-0.8,0.1-1.6,0.2-2.4,0.4c-0.7,0.2-1.1,0.6-1.2,1.3c-0.2,1.7-0.4,3.5-0.5,5.3
		c-0.8,12-1.4,23.9-2.4,35.9c-0.3,3.8,1.1,6.5,3.7,8.8c2.6,2.4,5.9,2.6,8.7,0.4c1.3-1,2.3-2.2,3.4-3.4c0.6-0.7,1.2-1.5,1.8-2.2
		c0.2-0.2,0.6-0.2,0.9-0.2c0.3,0.1,0.6,0.3,0.7,0.6c0.4,1.2,0.3,2.5,0.1,3.8c-1,4.3-4,6.8-8,8.1c-3.7,1.2-6.9,0-9.6-2.7
		C853.3,410.6,852.6,409.7,851.5,408.5z"/>
</g>
</svg>
