<svg id="Capa_1" data-name="Capa 1" xmlns="http://www.w3.org/2000/svg" viewBox="0 0 273 267.77"><defs><style>.cls-1{fill:#e52421;opacity:0.5;}.cls-2{font-size:62px;fill:#1d1d1b;font-family:rockstar-Regular, rockstar;}.cls-3{letter-spacing:-0.01em;}.cls-4{letter-spacing:0em;}.cls-5{letter-spacing:-0.05em;}.cls-6{letter-spacing:-0.03em;}.cls-7{fill:none;stroke:#1d1d1b;stroke-miterlimit:10;stroke-width:6px;}</style></defs><title>icon</title><ellipse class="cls-1" cx="136.5" cy="133.89" rx="136.5" ry="133.89"/><text class="cls-2" transform="translate(50.54 107.95) rotate(-22.77)"><tspan class="cls-3">S</tspan><tspan class="cls-4" x="21.45" y="0">ell</tspan><tspan class="cls-5" x="85.87" y="0">S</tspan><tspan class="cls-6" x="105.27" y="0">y</tspan><tspan x="129.33" y="0">S</tspan></text><path class="cls-7" d="M191,254.23c99.58-41.44,133.85-53.53,135-51,1.78,3.9-75.84,41.85-71,55,2.88,7.81,32.47.43,36,10,1.27,3.43-.79,9.12-30,35-22.85,20.24-37.35,30.72-36,33,1.6,2.69,22.58-10.88,56-15,11.89-1.47,28.32-2.11,29,1,1.44,6.55-68.61,24.19-67,33,1.4,7.66,56.13,3.56,57,11,.45,3.87-14,8.62-13,12,.82,2.86,11.46.43,14,5,1.64,2.94-.76,7.6-4,12" transform="translate(-136 -136.23)"/></svg>